 <svg version="1.1" class="LearnDiscovery_Logo" xmlns="http://www.w3.org/2000/svg" xmlns:xlink="http://www.w3.org/1999/xlink" x="0px" y="0px" width="250px" height="37px" viewBox="0 0 250 37" enable-background="new 0 0 250 37" xml:space="preserve">
<g id="LearnDiscovery_Logo">
    <g>
        <path fill="#0C67B1" d="M10.859,35.387c0,0.237-0.011,0.436-0.032,0.596c-0.022,0.161-0.057,0.299-0.106,0.412
            c-0.048,0.112-0.108,0.194-0.178,0.247c-0.07,0.056-0.153,0.081-0.25,0.081H1.036c-0.249,0-0.483-0.091-0.704-0.276
            C0.11,36.264,0,35.938,0,35.475V14.108c0-0.096,0.021-0.178,0.064-0.25c0.043-0.071,0.119-0.127,0.227-0.169
            c0.108-0.042,0.253-0.078,0.437-0.108c0.183-0.029,0.405-0.044,0.663-0.044c0.27,0,0.494,0.015,0.671,0.044
            c0.178,0.03,0.321,0.065,0.429,0.108c0.108,0.042,0.184,0.098,0.227,0.169c0.043,0.071,0.064,0.154,0.064,0.25v19.958h7.509
            c0.097,0,0.181,0.028,0.25,0.081c0.07,0.055,0.13,0.131,0.178,0.231c0.049,0.102,0.083,0.235,0.106,0.402
            C10.848,34.947,10.859,35.149,10.859,35.387z"></path>
        <path fill="#0C67B1" d="M25.128,35.457c0,0.214-0.011,0.402-0.032,0.562c-0.022,0.16-0.06,0.296-0.114,0.401
            c-0.054,0.106-0.116,0.185-0.186,0.234c-0.071,0.045-0.148,0.068-0.235,0.068h-10.05c-0.248,0-0.482-0.091-0.704-0.276
            c-0.221-0.183-0.332-0.509-0.332-0.972V14.893c0-0.464,0.11-0.788,0.332-0.972s0.456-0.277,0.704-0.277h9.937
            c0.086,0,0.164,0.025,0.235,0.071c0.07,0.048,0.126,0.125,0.17,0.232c0.043,0.106,0.078,0.242,0.105,0.401
            c0.027,0.161,0.04,0.359,0.04,0.597c0,0.214-0.013,0.402-0.04,0.562c-0.027,0.16-0.062,0.291-0.105,0.393
            c-0.044,0.101-0.1,0.174-0.17,0.223c-0.071,0.047-0.148,0.072-0.235,0.072H16.26v7.24h7.023c0.086,0,0.164,0.027,0.234,0.08
            c0.07,0.056,0.129,0.128,0.178,0.224c0.048,0.097,0.083,0.226,0.105,0.393s0.032,0.363,0.032,0.589
            c0,0.214-0.011,0.398-0.032,0.554c-0.021,0.154-0.057,0.278-0.105,0.374c-0.049,0.095-0.108,0.163-0.178,0.204
            c-0.071,0.043-0.148,0.063-0.234,0.063H16.26v8.256h8.301c0.087,0,0.165,0.025,0.235,0.072c0.07,0.048,0.131,0.122,0.186,0.224
            c0.054,0.101,0.092,0.231,0.114,0.391C25.117,35.02,25.128,35.22,25.128,35.457z"></path>
        <path fill="#0C67B1" d="M45.272,35.636c0.086,0.261,0.132,0.473,0.137,0.634c0.005,0.16-0.035,0.28-0.121,0.364
            c-0.087,0.083-0.229,0.138-0.429,0.159c-0.2,0.025-0.466,0.037-0.801,0.037c-0.335,0-0.602-0.008-0.801-0.027
            c-0.199-0.018-0.35-0.047-0.453-0.088c-0.103-0.041-0.178-0.099-0.227-0.169c-0.049-0.072-0.095-0.161-0.138-0.269l-1.796-5.617
            h-8.707l-1.715,5.546c-0.033,0.108-0.076,0.198-0.13,0.277c-0.054,0.076-0.132,0.141-0.234,0.196
            c-0.103,0.053-0.249,0.092-0.437,0.113c-0.189,0.025-0.435,0.037-0.736,0.037c-0.313,0-0.569-0.016-0.769-0.045
            s-0.34-0.086-0.421-0.169c-0.081-0.084-0.118-0.206-0.113-0.366c0.005-0.159,0.051-0.371,0.137-0.632l7.024-21.438
            c0.042-0.131,0.1-0.238,0.169-0.321c0.071-0.083,0.173-0.148,0.308-0.196c0.135-0.047,0.308-0.081,0.518-0.098
            c0.21-0.018,0.478-0.027,0.802-0.027c0.344,0,0.63,0.009,0.857,0.027c0.227,0.017,0.41,0.051,0.551,0.098
            c0.14,0.048,0.248,0.116,0.324,0.205c0.074,0.089,0.135,0.2,0.177,0.33L45.272,35.636z M36.257,16.712h-0.016l-3.609,11.502h7.283
            L36.257,16.712z"></path>
        <path fill="#0C67B1" d="M62.13,36.26c0,0.096-0.016,0.179-0.048,0.251c-0.033,0.07-0.103,0.129-0.21,0.177
            c-0.108,0.049-0.259,0.084-0.453,0.105c-0.194,0.025-0.453,0.037-0.776,0.037c-0.281,0-0.51-0.012-0.688-0.037
            c-0.178-0.021-0.321-0.061-0.429-0.113c-0.108-0.056-0.191-0.13-0.25-0.224c-0.06-0.095-0.111-0.214-0.154-0.357l-1.926-5.438
            c-0.227-0.618-0.461-1.188-0.705-1.703c-0.243-0.519-0.532-0.964-0.866-1.339c-0.334-0.374-0.728-0.665-1.181-0.873
            s-0.998-0.312-1.634-0.312h-1.861v9.826c0,0.096-0.025,0.179-0.073,0.251c-0.049,0.07-0.124,0.127-0.227,0.169
            c-0.103,0.041-0.242,0.076-0.421,0.105c-0.178,0.029-0.401,0.045-0.671,0.045s-0.493-0.016-0.671-0.045
            c-0.178-0.029-0.321-0.064-0.429-0.105c-0.107-0.042-0.183-0.099-0.226-0.169c-0.043-0.072-0.064-0.155-0.064-0.251V14.893
            c0-0.464,0.11-0.788,0.331-0.972c0.222-0.184,0.456-0.277,0.704-0.277h4.451c0.529,0,0.969,0.015,1.319,0.045
            c0.351,0.029,0.666,0.062,0.947,0.098c0.809,0.154,1.523,0.398,2.145,0.731c0.621,0.333,1.141,0.756,1.562,1.266
            c0.421,0.511,0.736,1.097,0.947,1.757c0.21,0.66,0.315,1.39,0.315,2.187c0,0.772-0.095,1.466-0.283,2.077
            c-0.188,0.612-0.461,1.154-0.817,1.623c-0.356,0.469-0.782,0.877-1.279,1.223c-0.497,0.345-1.052,0.636-1.667,0.873
            c0.346,0.166,0.658,0.376,0.939,0.634c0.28,0.255,0.542,0.561,0.785,0.918c0.243,0.357,0.472,0.768,0.688,1.23
            c0.216,0.463,0.432,0.986,0.647,1.569l1.877,5.082c0.151,0.43,0.248,0.729,0.291,0.902C62.109,36.03,62.13,36.165,62.13,36.26z
             M57.939,20.049c0-0.906-0.184-1.669-0.55-2.293c-0.367-0.625-0.982-1.073-1.845-1.347c-0.27-0.083-0.575-0.142-0.915-0.178
            c-0.339-0.035-0.785-0.054-1.335-0.054h-2.346v7.776h2.718c0.734,0,1.368-0.098,1.902-0.294s0.979-0.469,1.334-0.82
            c0.356-0.351,0.618-0.763,0.785-1.24C57.855,21.124,57.939,20.608,57.939,20.049z"></path>
        <path fill="#0C67B1" d="M79.646,25.899c-0.093,0.22-0.205,0.391-0.337,0.519c-0.132,0.123-0.272,0.212-0.422,0.265
            c-0.15,0.053-0.301,0.072-0.452,0.061c-0.152-0.014-0.296-0.047-0.429-0.105l-0.847-0.359c-0.268-0.113-0.488-0.243-0.663-0.389
            c-0.174-0.145-0.318-0.335-0.431-0.568c-0.112-0.235-0.199-0.528-0.264-0.877c-0.063-0.352-0.106-0.783-0.126-1.295l-0.752-14.58
            c-0.042-0.754-0.075-1.541-0.096-2.356c-0.022-0.817-0.031-1.604-0.025-2.365l-0.03-0.013c-0.315,0.798-0.642,1.608-0.98,2.433
            c-0.338,0.826-0.679,1.643-1.023,2.452l-5.442,12.824c-0.033,0.075-0.085,0.142-0.157,0.194s-0.166,0.078-0.282,0.074
            c-0.116-0.004-0.26-0.027-0.434-0.068c-0.174-0.043-0.387-0.115-0.639-0.224c-0.251-0.107-0.453-0.208-0.604-0.304
            c-0.151-0.097-0.265-0.183-0.343-0.262c-0.079-0.078-0.123-0.162-0.135-0.251c-0.012-0.088-0.001-0.173,0.031-0.249l8.32-19.602
            c0.186-0.438,0.432-0.703,0.736-0.792c0.303-0.091,0.589-0.079,0.856,0.034l1.261,0.536c0.297,0.125,0.534,0.259,0.711,0.398
            c0.177,0.141,0.317,0.307,0.423,0.5c0.105,0.193,0.185,0.434,0.238,0.721c0.053,0.289,0.09,0.635,0.109,1.043l0.562,11.244
            c0.037,0.688,0.069,1.357,0.099,2.009c0.03,0.651,0.052,1.292,0.07,1.919c0.017,0.625,0.034,1.246,0.053,1.853
            c0.02,0.61,0.035,1.221,0.047,1.833l0.015,0.006c0.347-0.873,0.717-1.777,1.109-2.717c0.393-0.938,0.771-1.838,1.139-2.704
            L85.404,5.21c0.032-0.076,0.083-0.138,0.154-0.187c0.069-0.047,0.164-0.075,0.285-0.082C85.963,4.935,86.109,4.956,86.281,5
            c0.171,0.047,0.387,0.126,0.65,0.238c0.23,0.098,0.425,0.193,0.583,0.286c0.159,0.094,0.275,0.185,0.348,0.274
            c0.073,0.09,0.118,0.175,0.132,0.259c0.013,0.083,0.005,0.164-0.028,0.24L79.646,25.899z"></path>
    </g>
</g>
<g id="Discovery_1_">
    <path fill="#231F1C" d="M111.181,36.742h3.174V14.129h-3.174V36.742z"></path>
    <path fill="#231F1C" d="M126.283,24.591l-2.423-1.462c-1.086-0.649-1.875-1.271-2.368-1.862c-0.488-0.59-0.735-1.226-0.735-1.902
        c0-0.766,0.335-1.391,1-1.879c0.667-0.49,1.517-0.734,2.555-0.734c1.838,0,3.558,0.783,5.153,2.351v-3.674
        c-1.544-1.059-3.241-1.59-5.092-1.59c-1.934,0-3.509,0.557-4.716,1.667c-1.213,1.112-1.821,2.558-1.821,4.338
        c0,1.186,0.323,2.236,0.961,3.147c0.641,0.913,1.716,1.838,3.23,2.78l2.41,1.496c1.944,1.235,2.919,2.542,2.919,3.917
        c0,0.852-0.331,1.556-0.992,2.122c-0.66,0.564-1.488,0.846-2.482,0.846c-2.254,0-4.235-1.107-5.947-3.322v4.111
        c1.795,1.374,3.791,2.059,5.98,2.059c1.904,0,3.447-0.564,4.638-1.698c1.191-1.133,1.786-2.607,1.786-4.417
        C130.338,28.337,128.987,26.239,126.283,24.591z"></path>
    <path fill="#231F1C" d="M138.405,31.626c-1.651-1.595-2.476-3.636-2.476-6.117c0-2.461,0.836-4.507,2.515-6.144
        c1.676-1.633,3.782-2.452,6.321-2.452c2.474,0,5.007,0.756,7.599,2.267V15.7c-2.845-1.241-5.433-1.861-7.758-1.861
        c-3.373,0-6.211,1.123-8.511,3.367c-2.301,2.245-3.45,5.013-3.45,8.303c0,2.071,0.502,3.998,1.508,5.777
        c1.004,1.781,2.371,3.18,4.094,4.191c1.722,1.018,3.822,1.522,6.297,1.522c3.046,0,5.731-0.647,8.058-1.94v-3.561
        c-2.56,1.681-5.181,2.524-7.869,2.524C142.162,34.023,140.054,33.225,138.405,31.626z"></path>
    <path fill="#231F1C" d="M167.05,13.806c-3.422,0-6.255,1.107-8.496,3.318c-2.239,2.212-3.358,5.008-3.358,8.385
        c0,3.292,1.111,6.03,3.337,8.216c2.225,2.186,5.005,3.275,8.344,3.275c3.499,0,6.399-1.09,8.697-3.275
        c2.297-2.186,3.446-4.946,3.446-8.281c0-3.333-1.139-6.107-3.416-8.319C173.327,14.913,170.475,13.806,167.05,13.806z
         M173.272,31.547c-1.654,1.65-3.717,2.477-6.187,2.477c-2.465,0-4.512-0.81-6.151-2.428c-1.637-1.62-2.456-3.648-2.456-6.087
        c0-2.514,0.815-4.58,2.45-6.199c1.632-1.619,3.715-2.429,6.252-2.429c2.407,0,4.438,0.821,6.092,2.453
        c1.655,1.636,2.48,3.651,2.48,6.048C175.752,27.839,174.927,29.895,173.272,31.547z"></path>
    <path fill="#231F1C" d="M188.71,30.009l-6.662-15.88h-3.193l9.55,22.71h0.719l9.368-22.71h-3.161L188.71,30.009z"></path>
    <path fill="#231F1C" d="M203.766,26.804h9.075v-2.896h-9.075v-6.898h9.391v-2.88h-12.561V36.71h12.865v-2.88h-9.695V26.804z"></path>
    <path fill="#231F1C" d="M230.664,32.226c-1.226-2.039-2.178-3.468-2.855-4.29c-0.678-0.819-1.368-1.466-2.079-1.94
        c1.206-0.476,2.131-1.194,2.776-2.153c0.645-0.961,0.966-2.099,0.966-3.417c0-1.93-0.658-3.462-1.973-4.596
        c-1.316-1.133-3.099-1.7-5.338-1.7h-5.555v22.613h3.174V26.9h0.825c1.037,0,1.775,0.122,2.217,0.363
        c0.438,0.243,0.932,0.64,1.478,1.188c0.546,0.551,1.146,1.289,1.798,2.218l1.061,1.765l0.983,1.653l0.62,0.892
        c0.094,0.128,0.156,0.22,0.189,0.275l0.966,1.488h3.775l-1.176-1.619C232.053,34.475,231.435,33.512,230.664,32.226z
         M224.292,23.601c-0.597,0.279-1.697,0.418-3.306,0.418h-1.206V16.88h0.953c1.556,0,2.669,0.12,3.337,0.358
        c0.673,0.235,1.193,0.643,1.564,1.22c0.37,0.578,0.556,1.224,0.556,1.936c0,0.722-0.167,1.367-0.502,1.936
        C225.357,22.895,224.891,23.317,224.292,23.601z"></path>
    <path fill="#231F1C" d="M245.887,14.129l-6.012,7.797l-5.928-7.797h-3.832l8.187,10.651v11.962h3.251V24.78l8.183-10.651H245.887z"></path>
</g>

<g>
    <path fill="#1E1F21" d="M107.586,15.682c-0.428-3.376-1.68-6.319-3.751-8.833c-1.196-1.453-2.81-2.804-4.834-4.057
        c-0.166-0.1-0.357-0.216-0.582-0.353c-0.522-0.315-0.801-0.104-1.431,0.475c-0.345,0.319-1.291,1.159-0.835,1.625
        c0.066,0.068,0.133,0.138,0.2,0.208c4.647,2.605,7.827,7.537,7.927,13.249c0.15,8.553-6.663,15.61-15.216,15.759
        c-1.499,0.025-2.951-0.167-4.328-0.539c-0.009,0.001-0.018,0.002-0.026,0.002c-0.867,0.064-0.909,1.656-0.835,2.302
        c0.041,0.368,0.084,0.584,0.679,0.767c0.12,0.037,0.11,0.037,0.414,0.102c1.136,0.241,2.433,0.424,3.911,0.447
        c2.513,0.077,4.931-0.357,7.251-1.305c2.267-0.914,4.274-2.232,6.02-3.961c1.744-1.728,3.097-3.736,4.059-6.024
        C107.558,22.342,108.016,19.052,107.586,15.682z"></path>
</g>
</svg>